<svg xmlns="http://www.w3.org/2000/svg" width="562.542" height="976.57"><path fill="#006e53" fill-rule="evenodd" d="M107.94 878.79q19.24 0 28.12 8.15 8.88 8.15 8.89 25.35v61.46h-19.24v-58.86q0-19.44-21.8-19.44a33.1 33.1 0 0 0-17.77 5 47.79 47.79 0 0 1 1.29 11.84v61.46H68.19v-58.86q0-19.44-21.8-19.44a55.61 55.61 0 0 0-19.42 3.52v74.78H7.74v-85.33a84.77 84.77 0 0 1 20.06-7 102.71 102.71 0 0 1 22.62-2.68q18 0 26.75 7a71.16 71.16 0 0 1 30.77-6.95zm102.93 97.78q-22 0-33.07-12.59t-11.08-36.65q0-48.69 44-48.68 22.17 0 33.34 12.49 11.17 12.49 11.18 36.19 0 23.68-11.54 36.46-11.54 12.78-32.83 12.78zm-.19-16.48q25.29 0 25.28-32.76 0-16.29-6-24.34t-19.24-8.06q-13.37 0-19.14 8.24-5.77 8.24-5.77 24.16 0 15.91 5.95 24.34t18.92 8.38zm108.79-81.26q20.52 0 31.14 12.4 10.62 12.4 10.65 35.13 0 27.4-12.73 38.78-12.73 11.38-32.36 11.43-39.39 0-39.39-21.1V843.62h19.06v40.95a57.17 57.17 0 0 1 12-4.17 51.75 51.75 0 0 1 11.63-1.61zm-4.77 80.89q15 0 21-8.7t6-23.88q0-15.54-6.32-23.69-6.32-8.15-18.77-8.14a44.67 44.67 0 0 0-10.72 1.38 37.65 37.65 0 0 0-10 4v50q-.05 9 18.81 8.99zM383 848.47h20.52v17.59H383Zm.55 32.95h19.24l.18 92.37h-19.42zm46.5 92.37V845.66h19.06v128.09zm83.51-95.22q21.44 0 31.42 14t9.8 39.15h-64.52q.93 13.7 8 20.83 7.07 7.13 20.06 7.12a61.57 61.57 0 0 0 29.68-7.59v18.14q-14.29 6.35-32.74 6.35-20.7 0-32.52-12.68-11.82-12.68-11.81-36 0-23.88 11.17-36.55 11.17-12.67 31.46-12.77zm-.55 16q-9.71 0-15.2 5.19-5.49 5.19-7.15 17.58h44.52q-1.29-11.85-6.6-17.3-5.31-5.45-15.57-5.47zM329.26 133.03q-31.83-7.87-49-7.88c-85.39 0-154.62 69-154.62 154.09s69.26 154.1 154.62 154.1 154.63-69 154.63-154.1a154.18 154.18 0 0 0-4.46-36.89l122.93-33.11a279.1 279.1 0 0 1-36.65 224.24L313.15 810.87H124.57l134-247c.73-1.36-1.42-4.36-3.22-4.52C112.16 546.35 0 426.35 0 280.26 0 125.47 125.9 0 281.22 0a281.81 281.81 0 0 1 83.86 12.67Z"/><circle cx="279.33" cy="279.24" r="84.75" fill="#d6e806"/><path fill="none" stroke="#d6e806" stroke-linecap="round" stroke-width="19.262" d="M425.72 221.46a153.65 153.65 0 0 0-79-82.83m132.94 59.71A218.49 218.49 0 0 0 369.87 82.77m161.8 98.24A273.23 273.23 0 0 0 387.2 30.77"/></svg>