<?xml version="1.0" encoding="utf-8"?>
<!-- Generator: Adobe Illustrator 23.0.1, SVG Export Plug-In . SVG Version: 6.00 Build 0)  -->
<svg version="1.1" id="Layer_1" xmlns="http://www.w3.org/2000/svg" xmlns:xlink="http://www.w3.org/1999/xlink" wide="200px" height="200px"
	 viewBox="0 0 200 200" style="enable-background:new 0 0 200 200;" xml:space="preserve">
<style type="text/css">
	.st0{fill:#FFFFFF;}
	.st1{fill:#FFCB05;}
	.st2{fill:#00678F;}
	.st3{fill:#ED1D24;}
</style>
<g>
	<g>
		<rect class="st0" width="200" height="200"/>
		<rect x="9.75" y="9.73" class="st1" width="180.52" height="180.52"/>
	</g>
	<g>
		<path class="st2" d="M184.62,99.47c0,19.27-37.88,34.89-84.6,34.89c-46.73,0-84.61-15.62-84.61-34.89s37.88-34.88,84.61-34.88
			C146.74,64.59,184.62,80.2,184.62,99.47"/>
	</g>
	<g>
		<polygon class="st0" points="45.81,116.69 54.56,81.8 68.54,81.8 68.54,102.12 77.73,81.8 92.16,81.8 83.42,116.69 74.23,116.69 
			79.47,94.17 68.54,116.69 61.12,116.69 61.12,94.17 55.42,116.69 		"/>
		<polygon class="st3" points="94.99,117.13 96.3,112.27 106.36,112.27 105.04,117.13 		"/>
		<polygon class="st0" points="117.5,116.69 126.24,81.8 136.3,81.8 140.68,100.36 145.48,81.8 154.66,81.8 145.92,116.69 
			136.3,116.69 131.49,97.7 126.68,116.69 		"/>
		<polygon class="st1" points="94.99,81.8 92.8,90.64 101.99,90.64 97.04,109.81 107.09,109.81 112.05,90.64 121.23,90.64 
			123.41,81.8 		"/>
	</g>
</g>
</svg>
